<?xml version="1.0" standalone="no"?>
<!DOCTYPE svg PUBLIC "-//W3C//DTD SVG 20010904//EN"
 "http://www.w3.org/TR/2001/REC-SVG-20010904/DTD/svg10.dtd">
<svg version="1.0" xmlns="http://www.w3.org/2000/svg"
 width="1626.000000pt" height="1626.000000pt" viewBox="0 0 1626.000000 1626.000000"
 preserveAspectRatio="xMidYMid meet">
<metadata>
Created by potrace 1.14, written by Peter Selinger 2001-2017
</metadata>
<g transform="translate(0.000000,1626.000000) scale(0.100000,-0.100000)"
fill="#000000" stroke="none">
<path d="M8238 11205 c-1 -1 -64 -6 -138 -10 -74 -4 -151 -8 -170 -10 -19 -2
-75 -6 -125 -10 -122 -9 -163 -13 -210 -20 -22 -3 -64 -6 -92 -7 -29 -2 -53
-5 -53 -8 0 -3 -12 -5 -27 -6 -16 0 -50 -4 -78 -8 -52 -7 -90 -13 -152 -21
-21 -3 -49 -7 -63 -10 -14 -2 -41 -7 -60 -9 -19 -3 -46 -8 -60 -11 -13 -2 -42
-7 -65 -11 -22 -3 -58 -9 -80 -14 -22 -5 -55 -11 -72 -14 -18 -4 -46 -8 -62
-11 -61 -10 -390 -86 -501 -116 -63 -16 -122 -32 -130 -34 -8 -2 -15 -4 -15
-5 0 -1 -11 -4 -25 -6 -14 -2 -99 -27 -190 -55 -91 -28 -172 -52 -180 -54 -8
-2 -15 -4 -15 -4 0 -1 -76 -28 -170 -60 -239 -84 -445 -164 -580 -226 -27 -12
-84 -37 -124 -55 -235 -102 -706 -356 -939 -507 -45 -29 -87 -53 -92 -53 -4 0
-10 -3 -12 -8 -1 -4 -34 -27 -72 -52 -87 -56 -365 -252 -390 -275 -6 -5 -50
-39 -96 -74 -47 -36 -94 -73 -105 -82 -11 -10 -51 -44 -90 -76 -38 -32 -81
-68 -95 -80 -14 -12 -35 -31 -48 -41 -159 -137 -489 -461 -617 -607 -39 -43
-79 -89 -90 -101 -17 -18 -86 -100 -122 -144 -79 -98 -128 -159 -142 -175 -30
-36 -226 -308 -281 -390 -29 -44 -57 -81 -62 -83 -4 -2 -8 -8 -8 -12 0 -5 -25
-48 -55 -95 -30 -46 -55 -89 -55 -94 0 -5 -3 -11 -7 -13 -10 -4 -83 -123 -83
-134 0 -4 -6 -15 -14 -23 -7 -9 -29 -45 -48 -81 -19 -36 -45 -82 -57 -104 -32
-56 -105 -200 -105 -208 -1 -4 -7 -13 -13 -19 -7 -7 -13 -16 -13 -20 0 -4 -27
-64 -60 -133 -33 -69 -60 -128 -60 -131 0 -2 -11 -28 -24 -57 -135 -300 -323
-864 -372 -1113 -2 -11 -6 -31 -9 -45 -20 -94 -3 -149 53 -171 19 -8 456 -12
1502 -12 1323 0 1478 1 1505 16 38 19 48 38 79 152 57 204 141 441 236 664 74
173 170 374 184 383 6 4 8 8 4 8 -6 0 15 41 87 175 22 41 143 246 188 320 48
77 201 301 208 303 5 2 9 10 9 17 0 7 3 15 8 17 4 2 46 55 94 118 47 63 95
124 105 135 10 11 40 47 68 80 354 424 784 797 1295 1121 89 57 411 235 430
239 3 0 24 11 48 23 71 38 320 146 427 186 55 21 114 44 130 51 171 73 789
237 1020 270 50 8 343 56 365 61 14 2 32 5 40 5 8 0 67 7 130 14 151 18 213
25 280 30 30 3 84 7 120 10 189 15 327 20 650 20 195 0 405 -4 465 -8 61 -4
139 -10 175 -12 36 -3 83 -8 105 -11 22 -3 63 -7 90 -9 51 -5 93 -10 155 -20
19 -3 51 -7 70 -10 145 -18 362 -58 552 -104 48 -11 98 -23 110 -25 100 -21
523 -146 593 -176 11 -5 72 -27 135 -50 235 -86 686 -295 915 -423 33 -18 83
-46 110 -61 28 -15 57 -34 66 -42 8 -8 19 -14 22 -14 11 0 214 -125 244 -150
7 -5 15 -10 18 -10 7 0 217 -140 225 -149 3 -4 30 -23 60 -44 95 -64 102 -69
225 -161 146 -109 128 -95 200 -154 33 -26 69 -54 81 -62 11 -8 42 -33 69 -55
26 -22 80 -67 119 -99 75 -63 254 -214 272 -231 6 -5 39 -35 74 -65 35 -30 88
-77 118 -105 30 -27 64 -58 76 -68 25 -22 177 -161 258 -236 100 -93 138 -105
186 -57 37 36 31 74 -25 173 -27 48 -53 95 -57 103 -8 18 -5 12 -121 203 -49
81 -94 155 -100 165 -21 37 -230 347 -241 357 -5 6 -27 35 -47 65 -20 30 -50
71 -67 90 -16 19 -30 38 -30 42 0 4 -6 13 -13 20 -7 7 -46 56 -87 108 -41 52
-85 106 -96 120 -134 157 -216 253 -254 295 -62 68 -435 441 -490 490 -83 75
-205 180 -249 215 -23 19 -55 45 -69 58 -38 32 -289 225 -310 237 -9 6 -19 13
-22 16 -3 3 -41 30 -85 59 -44 30 -82 57 -85 60 -7 8 -118 80 -250 162 -55 35
-217 130 -297 174 -74 41 -129 71 -151 83 -12 6 -32 16 -44 22 -202 104 -343
169 -563 260 -93 39 -179 74 -190 79 -80 34 -517 183 -571 195 -10 2 -50 13
-89 25 -38 12 -77 23 -85 25 -156 40 -422 106 -448 110 -19 3 -64 12 -100 19
-59 13 -129 26 -212 41 -14 2 -34 6 -45 8 -11 3 -40 8 -65 11 -25 3 -56 8 -70
10 -14 3 -61 10 -105 16 -44 6 -91 13 -105 16 -14 2 -56 7 -93 10 -37 3 -76 7
-87 9 -10 2 -50 6 -87 10 -37 3 -86 8 -108 10 -22 3 -83 7 -135 11 -52 3 -115
8 -140 11 -50 5 -886 13 -892 8z"/>
<path d="M8517 8384 c-1 -1 -63 -4 -137 -8 -74 -3 -144 -8 -155 -10 -11 -2
-56 -7 -100 -10 -44 -4 -87 -9 -95 -11 -13 -4 -46 -8 -145 -20 -16 -2 -55 -9
-85 -15 -30 -6 -68 -13 -85 -15 -57 -10 -180 -38 -275 -62 -52 -14 -102 -26
-111 -28 -20 -4 -208 -61 -264 -80 -220 -75 -479 -187 -660 -288 -11 -6 -22
-12 -25 -12 -3 0 -33 -17 -68 -38 -35 -20 -64 -37 -66 -37 -2 0 -34 -20 -72
-45 -38 -25 -76 -49 -84 -55 -116 -75 -331 -233 -376 -275 -6 -5 -36 -30 -65
-54 -110 -91 -452 -445 -483 -500 -5 -9 -15 -20 -21 -26 -20 -17 -127 -163
-198 -270 -37 -55 -71 -106 -77 -112 -6 -7 -8 -13 -4 -13 4 0 0 -8 -9 -17 -35
-40 -198 -356 -262 -508 -66 -157 -106 -273 -148 -430 -51 -190 -52 -201 -25
-228 l23 -22 775 1 c427 0 787 4 802 7 28 7 35 22 69 142 12 44 25 85 29 90 4
6 15 35 25 65 9 30 25 73 35 95 10 22 29 65 42 95 60 141 196 386 286 515 62
88 77 108 94 129 9 12 43 55 76 96 93 117 318 341 414 412 20 15 42 33 50 41
25 24 158 117 167 117 5 0 11 4 13 9 10 25 453 261 491 261 7 0 17 4 23 9 5 4
32 16 59 26 28 9 59 21 70 26 28 11 242 76 285 85 19 4 40 9 45 10 40 12 97
24 135 29 25 3 52 8 60 10 8 2 29 6 45 9 17 3 46 8 65 11 42 7 66 10 240 30
120 13 274 23 445 29 31 1 59 -2 61 -6 3 -5 13 -4 23 2 10 5 20 8 22 6 2 -2
63 -7 134 -10 188 -10 477 -46 595 -76 19 -5 67 -16 105 -25 287 -68 658 -218
930 -375 108 -62 328 -206 408 -266 31 -24 61 -44 66 -44 5 0 11 -3 13 -8 2
-4 23 -23 48 -42 76 -59 147 -117 190 -153 90 -77 167 -143 177 -152 47 -41
160 -144 209 -190 32 -30 67 -57 76 -61 26 -8 58 14 58 39 0 24 -173 333 -200
357 -4 3 -17 23 -30 45 -13 22 -28 45 -32 50 -5 6 -45 59 -89 120 -200 272
-453 539 -689 725 -36 29 -74 59 -85 68 -161 134 -542 361 -775 462 -41 18
-88 38 -105 46 -33 14 -214 84 -230 88 -5 1 -55 16 -110 34 -100 31 -195 59
-231 67 -11 2 -59 14 -109 26 -110 25 -111 26 -172 35 -26 5 -50 9 -53 9 -14
4 -80 15 -115 20 -22 3 -51 7 -65 9 -14 2 -56 7 -95 11 -38 3 -82 8 -97 11
-64 10 -591 26 -601 18z"/>
<path d="M8795 6781 c-3 -2 -26 -5 -52 -7 -47 -3 -128 -13 -168 -20 -10 -2
-37 -6 -59 -10 -22 -3 -43 -7 -47 -9 -3 -2 -21 -7 -40 -10 -186 -32 -523 -165
-675 -267 -23 -15 -45 -28 -49 -28 -3 0 -26 -15 -50 -32 -23 -18 -56 -42 -71
-53 -56 -40 -170 -141 -238 -210 -73 -75 -194 -220 -204 -245 -3 -8 -8 -17
-12 -20 -15 -12 -107 -172 -146 -255 -35 -76 -90 -216 -98 -250 -2 -5 -8 -29
-15 -53 -7 -24 -14 -59 -16 -78 -4 -30 -2 -34 18 -35 119 -4 772 -3 784 2 9 3
27 40 43 90 16 46 41 113 58 149 16 36 30 70 31 75 1 6 8 17 14 25 12 14 29
43 51 85 44 81 172 240 258 320 143 133 251 202 458 293 44 20 180 63 210 67
8 2 26 5 40 8 320 67 644 67 920 1 336 -82 661 -273 994 -586 57 -54 88 -69
100 -50 6 10 -30 84 -73 147 -17 25 -31 48 -31 51 0 7 -144 198 -168 222 -9
10 -33 36 -53 58 -102 110 -230 216 -369 307 -87 56 -280 154 -360 182 -283
100 -496 137 -808 139 -96 1 -175 -1 -177 -3z"/>
</g>
</svg>
